<?xml version="1.0" standalone="no"?>
<!DOCTYPE svg PUBLIC "-//W3C//DTD SVG 20010904//EN"
 "http://www.w3.org/TR/2001/REC-SVG-20010904/DTD/svg10.dtd">
<svg version="1.0" xmlns="http://www.w3.org/2000/svg"
 width="1024.000000pt" height="1024.000000pt" viewBox="0 0 1024.000000 1024.000000"
 preserveAspectRatio="xMidYMid meet">

<g transform="translate(0.000000,1024.000000) scale(0.100000,-0.100000)"
fill="#000000" stroke="none">
<path d="M0 5120 l0 -5120 5120 0 5120 0 0 4589 c0 4047 -2 4590 -15 4595 -8
3 -15 11 -15 18 0 9 3 9 10 -2 5 -8 12 -11 16 -7 4 3 1 14 -7 24 -8 9 -9 14
-2 10 17 -10 11 146 -7 168 -11 14 -11 16 1 13 10 -2 14 9 15 44 1 36 -1 45
-12 41 -8 -3 -14 0 -14 7 0 6 4 9 9 5 5 -3 13 0 17 6 3 6 0 15 -7 20 -10 6
-11 9 -1 9 8 0 12 22 12 76 0 64 -2 75 -15 70 -8 -3 -15 -1 -15 3 0 5 7 11 15
15 17 6 21 36 4 36 -5 0 -8 4 -4 9 9 16 13 71 4 65 -5 -3 -9 -1 -9 5 0 5 4 12
9 15 5 3 9 21 8 40 0 20 -5 32 -11 29 -5 -4 -6 -1 -1 7 4 7 2 16 -6 21 -11 7
-10 9 4 9 15 0 18 7 14 43 -3 32 -12 51 -40 80 -20 21 -37 42 -37 47 0 5 -6 7
-13 4 -8 -3 -20 3 -28 12 -12 15 -12 16 9 10 26 -9 28 -3 5 23 -16 19 -16 19
-34 -2 -17 -20 -18 -20 -19 -3 0 12 -5 16 -14 13 -10 -4 -13 -1 -9 8 4 11 10
12 23 5 12 -6 21 -7 25 0 3 5 11 7 18 5 7 -3 21 2 32 11 17 13 18 16 5 24 -11
7 -16 4 -20 -13 -4 -15 -8 -18 -14 -9 -4 6 -4 17 -1 22 3 6 1 10 -4 10 -6 0
-11 -7 -11 -15 0 -8 -4 -15 -10 -15 -5 0 -10 9 -10 20 0 11 -4 20 -10 20 -5 0
-10 -7 -10 -15 0 -8 -4 -15 -10 -15 -5 0 -10 7 -10 15 0 8 -4 15 -10 15 -14 0
-13 -23 2 -38 7 -7 9 -12 4 -12 -11 0 -36 27 -36 39 0 12 -118 9 -138 -3 -7
-4 -12 -2 -12 5 0 10 -3 10 -12 1 -14 -14 -32 -16 -24 -4 3 5 -39 10 -94 11
-87 2 -99 0 -103 -16 -4 -17 -5 -17 -6 0 -1 16 -237 17 -4811 17 l-4810 0 0
-5120z m9815 5071 c-3 -6 -11 -11 -16 -11 -5 0 -4 6 3 14 14 16 24 13 13 -3z
m145 -11 c13 -8 13 -10 -2 -10 -9 0 -20 5 -23 10 -8 13 5 13 25 0z m65 -19 c3
-5 2 -12 -3 -15 -5 -3 -9 1 -9 9 0 17 3 19 12 6z m-108 -17 c-3 -3 -12 -4 -19
-1 -8 3 -5 6 6 6 11 1 17 -2 13 -5z m116 -19 c-3 -9 -8 -14 -10 -11 -3 3 -2 9
2 15 9 16 15 13 8 -4z m109 -67 c-8 -8 -9 -4 -5 13 4 13 8 18 11 10 2 -7 -1
-18 -6 -23z m-597 12 c3 -5 1 -10 -4 -10 -6 0 -11 5 -11 10 0 6 2 10 4 10 3 0
8 -4 11 -10z m636 -38 c0 7 4 2 10 -10 5 -13 6 -29 2 -35 -4 -6 0 -8 10 -4 19
7 23 -8 5 -19 -6 -4 -16 0 -22 8 -6 8 -16 13 -23 11 -6 -2 -14 1 -18 6 -3 7 0
8 9 5 22 -8 20 15 -1 33 -16 13 -16 13 5 3 17 -8 22 -8 23 2z m-108 -27 c-3
-9 -8 -14 -10 -11 -3 3 -2 9 2 15 9 16 15 13 8 -4z m137 -95 c0 -5 -5 -10 -11
-10 -5 0 -7 5 -4 10 3 6 8 10 11 10 2 0 4 -4 4 -10z m-125 -50 c3 -5 1 -10 -4
-10 -6 0 -11 5 -11 10 0 6 2 10 4 10 3 0 8 -4 11 -10z m145 0 c0 -6 -11 -8
-27 -4 -40 10 -41 14 -5 14 18 0 32 -5 32 -10z m-50 -40 c0 -5 -7 -7 -15 -4
-8 4 -12 10 -9 15 6 11 24 2 24 -11z m38 -26 c-10 -10 -28 6 -28 24 0 15 1 15
17 -1 9 -9 14 -19 11 -23z m-191 -6 c-3 -8 -6 -5 -6 6 -1 11 2 17 5 13 3 -3 4
-12 1 -19z m-17 -30 c0 -6 -6 -5 -15 2 -8 7 -15 14 -15 16 0 2 7 1 15 -2 8 -4
15 -11 15 -16z m130 -8 c0 -5 -2 -10 -4 -10 -3 0 -8 5 -11 10 -3 6 -1 10 4 10
6 0 11 -4 11 -10z m-150 -21 c0 -6 -4 -7 -10 -4 -5 3 -10 11 -10 16 0 6 5 7
10 4 6 -3 10 -11 10 -16z m235 0 c4 -6 4 -13 0 -17 -3 -3 -9 -1 -13 5 -4 6
-16 13 -27 16 -16 4 -14 5 7 6 15 0 30 -4 33 -10z m-79 -23 c0 -14 -5 -21 -9
-17 -4 4 -5 15 -1 24 9 24 12 21 10 -7z m-116 -20 c0 -3 -4 -8 -10 -11 -5 -3
-10 -1 -10 4 0 6 5 11 10 11 6 0 10 -2 10 -4z m47 -10 c-6 -15 16 -40 25 -30
3 3 9 1 13 -5 9 -16 -31 -13 -44 3 -10 12 -6 46 6 46 3 0 3 -6 0 -14z m130
-12 c-3 -3 -12 -4 -19 -1 -8 3 -5 6 6 6 11 1 17 -2 13 -5z m-276 -52 c-7 -2
-18 1 -23 6 -8 8 -4 9 13 5 13 -4 18 -8 10 -11z m64 8 c-3 -5 -11 -10 -16 -10
-6 0 -7 5 -4 10 3 6 11 10 16 10 6 0 7 -4 4 -10z m158 -5 c4 -8 2 -17 -3 -20
-6 -4 -10 3 -10 14 0 25 6 27 13 6z m67 5 c0 -5 -2 -10 -4 -10 -3 0 -8 5 -11
10 -3 6 -1 10 4 10 6 0 11 -4 11 -10z m-230 -47 c0 -10 -4 -14 -8 -8 -4 6 -11
13 -16 18 -5 4 -2 7 7 7 10 0 17 -8 17 -17z m230 -3 c0 -5 -2 -10 -4 -10 -3 0
-8 5 -11 10 -3 6 -1 10 4 10 6 0 11 -4 11 -10z m-280 -20 c0 -5 -5 -10 -11
-10 -5 0 -7 5 -4 10 3 6 8 10 11 10 2 0 4 -4 4 -10z m6 -47 c-7 -7 -26 7 -26
19 0 6 6 6 15 -2 9 -7 13 -15 11 -17z m119 7 c3 -5 1 -10 -4 -10 -6 0 -11 5
-11 10 0 6 2 10 4 10 3 0 8 -4 11 -10z m95 -34 c0 -2 -7 -7 -16 -10 -8 -3 -12
-2 -9 4 6 10 25 14 25 6z m50 -20 c-7 -7 -13 -7 -20 0 -6 6 -3 10 10 10 13 0
16 -4 10 -10z m-195 -36 c3 -5 1 -10 -4 -10 -6 0 -11 5 -11 10 0 6 2 10 4 10
3 0 8 -4 11 -10z m-70 -20 c3 -5 1 -10 -4 -10 -6 0 -11 5 -11 10 0 6 2 10 4
10 3 0 8 -4 11 -10z m132 -16 c-3 -3 -12 -4 -19 -1 -8 3 -5 6 6 6 11 1 17 -2
13 -5z m140 -44 c1 -16 -1 -17 -12 -7 -11 10 -8 19 10 27 1 0 1 -9 2 -20z
m-132 -8 c-3 -3 -11 0 -18 7 -9 10 -8 11 6 5 10 -3 15 -9 12 -12z m49 2 c5
-14 4 -15 -9 -4 -17 14 -19 20 -6 20 5 0 12 -7 15 -16z m-4 -35 c0 -14 -17
-10 -23 5 -4 10 -1 13 9 9 7 -3 14 -9 14 -14z m66 -1 c-9 -5 -23 -5 -32 0 -12
6 -7 9 16 9 23 0 28 -3 16 -9z m-41 -18 c3 -5 1 -10 -4 -10 -6 0 -11 5 -11 10
0 6 2 10 4 10 3 0 8 -4 11 -10z m-190 -28 c-3 -3 -11 0 -18 7 -9 10 -8 11 6 5
10 -3 15 -9 12 -12z m265 14 c0 -11 -19 -15 -25 -6 -3 5 1 10 9 10 9 0 16 -2
16 -4z m-235 -26 c3 -5 1 -10 -4 -10 -6 0 -11 5 -11 10 0 6 2 10 4 10 3 0 8
-4 11 -10z m-45 -14 c0 -3 -4 -8 -10 -11 -5 -3 -10 -1 -10 4 0 6 5 11 10 11 6
0 10 -2 10 -4z m260 -1 c0 -7 -30 -13 -34 -7 -3 4 4 9 15 9 10 1 19 0 19 -2z
m-4910 -1105 c207 -11 361 -36 562 -90 180 -49 260 -77 408 -145 221 -101 459
-247 605 -371 43 -38 87 -68 95 -69 22 0 114 -83 129 -115 11 -24 11 -24 -3
-6 -9 11 -16 24 -16 30 0 5 -3 7 -6 3 -3 -3 -17 5 -31 19 -13 13 -26 24 -29
24 -3 0 45 -53 106 -117 61 -65 118 -117 126 -115 8 2 14 -2 14 -7 0 -5 9 -12
19 -16 23 -7 34 -32 19 -41 -7 -4 -8 -3 -4 4 4 7 1 12 -9 12 -9 0 -14 4 -11 8
2 4 -4 13 -15 20 -27 17 -24 7 12 -38 18 -22 36 -37 42 -33 6 3 7 1 3 -5 -8
-14 42 -84 54 -77 5 3 12 0 16 -6 4 -8 3 -9 -4 -5 -21 13 -13 -5 24 -56 37
-50 55 -59 34 -16 -11 22 -10 22 4 4 9 -11 16 -30 16 -42 0 -12 25 -66 55
-119 30 -54 55 -100 55 -104 0 -3 9 -17 20 -31 l20 -25 -15 37 c-26 64 -16 56
31 -25 25 -43 43 -82 39 -85 -8 -8 -36 28 -30 38 3 4 -2 13 -10 20 -8 7 -15
10 -15 8 0 -2 22 -54 49 -114 27 -60 61 -145 77 -189 27 -78 40 -99 56 -89 4
3 8 0 8 -7 0 -7 10 -9 25 -7 14 3 25 1 25 -3 0 -5 -4 -9 -8 -9 -4 0 -8 -9 -9
-20 -1 -14 4 -20 18 -20 10 0 19 -5 19 -11 0 -6 -7 -9 -15 -5 -8 3 -15 1 -15
-4 0 -6 9 -10 19 -10 11 0 22 -4 25 -9 3 -4 -6 -6 -21 -3 -23 4 -25 2 -18 -14
5 -10 8 -29 8 -41 -1 -13 4 -23 9 -23 6 0 7 -11 4 -26 -5 -17 -3 -23 4 -19 5
3 10 2 10 -4 0 -5 -6 -12 -12 -15 -10 -5 -10 -7 0 -12 6 -3 12 -11 12 -17 0
-8 -4 -7 -12 1 -30 30 -32 -1 -8 -113 20 -91 24 -533 6 -695 -35 -325 -169
-728 -334 -1005 -120 -201 -371 -511 -528 -651 -139 -123 -365 -289 -494 -362
-95 -53 -372 -178 -466 -210 -223 -76 -508 -131 -764 -147 -123 -8 -408 8
-535 30 -230 40 -485 112 -635 180 -312 140 -468 232 -672 397 -334 268 -578
573 -758 943 -105 218 -176 447 -227 733 -26 146 -28 175 -28 422 1 255 2 272
33 443 49 267 107 444 223 685 197 406 395 657 754 956 143 119 307 223 497
315 280 137 437 190 713 242 245 45 385 54 655 39z m1460 -480 c0 -5 -2 -10
-4 -10 -3 0 -8 5 -11 10 -3 6 -1 10 4 10 6 0 11 -4 11 -10z m146 -125 c9 -8
11 -15 6 -15 -5 0 -15 7 -22 15 -7 8 -9 15 -6 15 4 0 14 -7 22 -15z m48 -40
c3 -8 2 -15 -3 -15 -5 0 -14 7 -21 15 -10 12 -10 15 3 15 8 0 17 -7 21 -15z
m214 -210 c-3 -3 -9 2 -12 12 -6 14 -5 15 5 6 7 -7 10 -15 7 -18z m61 -62 c9
-7 11 -13 6 -13 -16 0 -35 22 -34 40 0 13 1 13 6 0 4 -8 13 -20 22 -27z m301
-420 c0 -26 -1 -26 -15 -7 -8 10 -15 27 -15 37 0 9 -4 17 -10 17 -5 0 -10 7
-10 15 0 9 8 6 25 -11 14 -14 25 -36 25 -51z m28 -51 c6 -18 -15 -14 -22 4 -4
10 -1 14 6 12 6 -2 14 -10 16 -16z m142 -152 c0 -5 -4 -10 -9 -10 -6 0 -13 5
-16 10 -3 6 1 10 9 10 9 0 16 -4 16 -10z m-10 -81 c0 -23 -21 -22 -28 2 -3 11
-2 11 7 -1 9 -13 11 -13 11 3 0 9 2 17 5 17 3 0 5 -9 5 -21z m110 -214 c0 -7
-10 -15 -23 -17 -18 -4 -23 0 -23 17 0 17 5 21 23 17 13 -2 23 -10 23 -17z
m77 -477 c-3 -8 -6 -5 -6 6 -1 11 2 17 5 13 3 -3 4 -12 1 -19z m40 -385 c-3
-10 -5 -4 -5 12 0 17 2 24 5 18 2 -7 2 -21 0 -30z"/>
<path d="M5500 7750 c14 -4 43 -8 65 -8 l40 0 -40 9 c-22 4 -51 8 -65 7 l-25
0 25 -8z"/>
<path d="M4997 7740 c-225 -17 -394 -52 -602 -124 -229 -79 -395 -158 -560
-266 -445 -293 -800 -773 -944 -1275 -75 -260 -106 -492 -98 -729 17 -542 225
-1059 583 -1449 448 -488 1049 -771 1689 -794 311 -11 644 46 929 159 221 87
408 189 561 304 537 404 835 888 935 1516 28 180 34 304 21 473 -20 256 -70
471 -170 719 -178 443 -562 893 -967 1132 -199 117 -497 241 -669 278 -219 47
-516 71 -708 56z m528 -274 c219 -46 387 -101 543 -178 304 -149 525 -328 746
-599 115 -143 253 -394 330 -600 120 -324 137 -825 40 -1189 -25 -94 -108
-316 -126 -335 -5 -5 1 15 13 45 33 83 97 286 114 365 9 39 19 107 23 152 7
71 6 80 -6 70 -13 -10 -14 -8 -7 12 7 24 -30 121 -47 121 -4 0 -8 15 -8 34 0
30 -3 35 -27 38 -24 3 -28 8 -31 41 -3 34 -6 37 -35 37 -24 0 -28 3 -19 12 7
7 12 25 12 40 0 32 -20 37 -45 12 -9 -9 -19 -13 -23 -10 -3 4 -2 10 4 14 6 4
11 14 12 22 1 8 4 27 8 43 5 22 3 27 -12 27 -20 0 -44 40 -44 73 0 10 -4 15
-10 12 -5 -3 -10 3 -10 14 0 10 4 21 9 23 24 8 -76 88 -110 88 -17 0 -24 11
-20 32 0 4 -5 5 -13 2 -9 -4 -16 11 -24 52 -7 31 -9 60 -6 65 3 5 -2 6 -10 3
-9 -3 -13 -11 -9 -17 32 -53 43 -290 18 -430 -35 -199 -151 -373 -329 -492
-164 -109 -246 -130 -536 -139 -107 -4 -216 -9 -242 -12 l-48 -6 0 191 c0 105
1 192 3 192 1 1 106 5 232 8 196 6 238 11 287 28 79 29 140 74 191 141 61 79
78 135 80 259 1 100 0 103 -38 180 -45 88 -117 164 -192 205 -87 48 -152 60
-360 65 l-192 6 -6 41 c-7 54 -10 162 -7 259 l2 77 183 1 c173 2 178 2 107 13
l-75 11 55 5 c54 5 55 5 20 13 -19 5 -29 11 -22 14 23 9 12 23 -18 23 -19 0
-30 5 -30 14 0 7 -15 16 -32 20 -26 5 -30 9 -18 16 10 6 11 10 3 10 -7 0 -13
11 -13 24 0 13 -7 26 -15 30 -8 3 -15 16 -15 30 0 25 -29 88 -43 95 -5 2 -27
21 -49 42 -23 21 -50 40 -60 40 -34 3 -37 4 -52 24 -9 11 -16 15 -16 10 0 -17
-52 -34 -95 -31 -52 3 -115 26 -115 43 0 7 -4 13 -9 13 -5 0 -13 9 -16 20 -3
11 -15 20 -25 20 -12 0 -17 5 -14 14 6 16 -30 41 -71 49 -65 13 -176 -39 -155
-73 5 -8 10 -32 10 -52 0 -23 6 -40 15 -46 13 -7 11 -11 -10 -22 -14 -7 -37
-30 -52 -49 -64 -86 -229 -252 -267 -271 -47 -22 -123 -39 -93 -20 9 6 17 21
17 34 0 12 7 31 15 42 8 10 15 28 15 40 0 36 30 109 55 136 14 15 25 34 25 43
0 8 4 15 9 15 8 0 25 56 22 73 -1 5 3 6 9 2 6 -4 17 -1 25 5 17 14 21 35 5 25
-5 -3 -10 -2 -10 4 0 5 6 12 13 15 10 5 10 7 0 12 -15 7 -17 44 -3 44 6 0 10
5 10 11 0 16 -26 39 -44 39 -9 0 -16 5 -16 11 0 19 -24 35 -72 49 -27 8 -48
20 -48 27 0 9 -20 13 -69 13 -87 0 -131 9 -131 26 0 8 -9 14 -20 14 -11 0 -20
-4 -20 -10 0 -5 -9 -10 -20 -10 -22 0 -27 15 -7 23 6 3 3 6 -9 6 -11 1 -26 7
-32 13 -10 10 -15 10 -21 0 -5 -8 -11 -13 -15 -12 -17 4 -76 -16 -126 -43 -30
-16 -80 -43 -110 -60 -54 -29 -290 -196 -320 -227 -44 -44 -69 -58 -30 -17 58
62 251 209 362 275 216 130 495 227 781 272 182 28 504 22 672 -14z m-1255
-216 c-8 -5 -22 -9 -30 -9 -10 0 -8 3 5 9 27 12 43 12 25 0z m1043 -297 c-7
-2 -19 -2 -25 0 -7 3 -2 5 12 5 14 0 19 -2 13 -5z m52 -3 c-3 -5 -10 -10 -16
-10 -5 0 -9 5 -9 10 0 6 7 10 16 10 8 0 12 -4 9 -10z m15 -1317 c0 -714 3
-1363 7 -1442 l6 -143 -24 8 c-13 5 -97 9 -187 9 l-162 0 0 1405 c0 773 3
1415 6 1427 3 12 13 24 23 26 9 3 87 5 174 6 l157 1 0 -1297z m-1039 919 l417
-4 -2 -182 c0 -107 -5 -184 -11 -188 -11 -8 -944 0 -957 8 -5 3 -8 69 -8 147
0 78 -3 152 -6 164 -6 22 -6 22 -30 -5 l-24 -27 18 35 c31 61 28 60 110 58 42
0 264 -3 493 -6z m412 -1499 c2 -896 0 -1012 -13 -1009 -8 3 -90 8 -182 12
l-167 6 -3 947 c-2 520 -1 966 2 991 l5 45 143 -4 c160 -4 191 5 193 57 l1 27
10 -30 c6 -19 10 -411 11 -1042z"/>
<path d="M5030 7145 c-11 -12 -20 -28 -20 -35 0 -9 6 -6 15 7 11 15 28 23 56
25 l41 3 -36 11 c-31 10 -38 8 -56 -11z"/>
<path d="M6053 6550 c125 -12 247 -54 342 -119 17 -12 34 -21 38 -21 13 0 -14
23 -46 39 -20 11 -24 17 -15 24 9 6 8 7 -5 3 -9 -3 -31 3 -48 13 -20 12 -26
21 -18 24 8 2 5 3 -5 1 -11 -2 -47 6 -80 17 -37 12 -98 21 -156 24 l-95 4 88
-9z"/>
<path d="M6465 6380 c3 -5 8 -10 11 -10 2 0 4 5 4 10 0 6 -5 10 -11 10 -5 0
-7 -4 -4 -10z"/>
<path d="M6701 6074 c0 -11 3 -14 6 -6 3 7 2 16 -1 19 -3 4 -6 -2 -5 -13z"/>
<path d="M7211 5604 c0 -11 3 -14 6 -6 3 7 2 16 -1 19 -3 4 -6 -2 -5 -13z"/>
<path d="M5618 7733 c7 -3 16 -2 19 1 4 3 -2 6 -13 5 -11 0 -14 -3 -6 -6z"/>
<path d="M4581 7709 c-18 -6 -31 -12 -29 -14 2 -2 26 2 53 10 28 7 41 13 30
13 -11 0 -35 -4 -54 -9z"/>
<path d="M5770 7691 c8 -5 47 -16 85 -25 39 -10 79 -20 90 -23 11 -3 17 -3 14
1 -8 8 -169 56 -189 55 -13 0 -13 -1 0 -8z"/>
<path d="M4100 7535 c-25 -13 -40 -24 -35 -24 6 0 30 11 55 24 25 13 41 24 35
24 -5 0 -30 -11 -55 -24z"/>
<path d="M6240 7515 c0 -3 21 -15 48 -27 26 -12 50 -23 55 -25 4 -2 7 -2 7 1
0 6 -95 56 -105 56 -3 0 -5 -2 -5 -5z"/>
<path d="M6970 7431 c0 -5 7 -12 16 -15 14 -5 15 -4 4 9 -14 17 -20 19 -20 6z"/>
<path d="M6420 7423 c1 -10 71 -55 76 -50 3 2 -14 16 -36 31 -22 14 -40 23
-40 19z"/>
<path d="M6540 7341 c19 -17 39 -31 44 -31 5 0 7 1 5 3 -2 2 -22 15 -44 31
l-40 27 35 -30z"/>
<path d="M6655 7251 c19 -22 55 -46 55 -38 0 3 -17 17 -37 33 -31 23 -34 24
-18 5z"/>
<path d="M6942 6968 c2 -6 15 -18 29 -27 l24 -15 -24 27 c-26 29 -35 34 -29
15z"/>
<path d="M7088 6780 c9 -16 21 -30 25 -30 5 0 -1 14 -13 30 -27 39 -34 39 -12
0z"/>
<path d="M7140 6711 c0 -6 4 -13 10 -16 6 -3 7 1 4 9 -7 18 -14 21 -14 7z"/>
<path d="M7266 6500 c8 -31 56 -122 61 -116 2 2 -12 35 -32 72 -19 38 -33 58
-29 44z"/>
<path d="M7337 6350 c3 -11 9 -22 13 -25 5 -3 6 4 3 15 -3 11 -9 22 -13 25 -5
3 -6 -4 -3 -15z"/>
<path d="M7781 6164 c0 -11 3 -14 6 -6 3 7 2 16 -1 19 -3 4 -6 -2 -5 -13z"/>
<path d="M7792 6120 c0 -14 2 -19 5 -12 2 6 2 18 0 25 -3 6 -5 1 -5 -13z"/>
<path d="M7816 6107 c3 -10 9 -15 12 -12 3 3 0 11 -7 18 -10 9 -11 8 -5 -6z"/>
<path d="M7818 6008 c8 -32 19 -58 24 -58 6 0 8 7 4 15 -3 8 -1 15 4 15 6 0
10 5 10 11 0 5 -4 8 -9 4 -14 -8 -33 32 -26 54 3 11 0 18 -8 18 -12 0 -11 -10
1 -59z"/>
<path d="M7451 6044 c0 -11 3 -14 6 -6 3 7 2 16 -1 19 -3 4 -6 -2 -5 -13z"/>
<path d="M7460 5991 c0 -17 4 -32 8 -35 4 -2 6 11 4 30 -5 42 -12 45 -12 5z"/>
<path d="M10200 10190 c-9 -6 -10 -10 -3 -10 6 0 15 5 18 10 8 12 4 12 -15 0z"/>
<path d="M10155 10170 c4 -6 11 -8 16 -5 14 9 11 15 -7 15 -8 0 -12 -5 -9 -10z"/>
<path d="M10182 10147 c-9 -10 -5 -23 15 -55 15 -23 29 -40 31 -38 4 5 -18 45
-36 65 -11 11 -11 15 -1 22 8 4 11 11 8 14 -4 3 -11 -1 -17 -8z"/>
<path d="M10210 10128 c0 -4 4 -8 9 -8 6 0 12 4 15 8 3 5 -1 9 -9 9 -8 0 -15
-4 -15 -9z"/>
</g>
</svg>
